999
"DXF R12 Output" (www.mydxf.blogspot.com)
 0 
SECTION
 2 
HEADER
 9 
$ACADVER
 1 
AC1009
 9 
$EXTMIN
 10 
 0 
 20 
 0 
 9 
$EXTMAX
 10 
 8.5 
 20 
 11 
 0 
ENDSEC
 0 
SECTION
 2 
ENTITIES
0
LINE
8
Layer 1
10
100.229810
20
187.332290
11
96.260665
21
187.003070
0
LINE
8
Layer 1
10
96.260665
20
187.003070
11
89.798035
21
185.832820
0
LINE
8
Layer 1
10
89.798035
20
185.832820
11
84.546545
21
184.647330
0
LINE
8
Layer 1
10
84.546545
20
184.647330
11
81.692435
21
184.094770
0
LINE
8
Layer 1
10
81.692435
20
184.094770
11
80.837185
21
183.950590
0
LINE
8
Layer 1
10
80.837185
20
183.950590
11
80.061315
21
183.831860
0
LINE
8
Layer 1
10
80.061315
20
183.831860
11
75.299425
21
183.431630
0
LINE
8
Layer 1
10
75.299425
20
183.431630
11
71.245622
21
183.354741
0
LINE
8
Layer 1
10
71.245622
20
183.354741
11
67.190017
21
183.435630
0
LINE
8
Layer 1
10
67.190017
20
183.435630
11
65.280205
21
183.533984
0
LINE
8
Layer 1
10
65.280205
20
183.533984
11
63.370132
21
183.525230
0
LINE
8
Layer 1
10
63.370132
20
183.525230
11
62.516339
21
183.380660
0
LINE
8
Layer 1
10
62.516339
20
183.380660
11
61.730091
21
183.026600
0
LINE
8
Layer 1
10
61.730091
20
183.026600
11
60.918402
21
182.246201
0
LINE
8
Layer 1
10
60.918402
20
182.246201
11
60.460148
21
181.216480
0
LINE
8
Layer 1
10
60.460148
20
181.216480
11
60.472972
21
180.424612
0
LINE
8
Layer 1
10
60.472972
20
180.424612
11
60.725192
21
179.662760
0
LINE
8
Layer 1
10
60.725192
20
179.662760
11
61.951910
21
177.165780
0
LINE
8
Layer 1
10
61.951910
20
177.165780
11
63.427736
21
174.804850
0
LINE
8
Layer 1
10
63.427736
20
174.804850
11
65.068792
21
172.620464
0
LINE
8
Layer 1
10
65.068792
20
172.620464
11
67.003350
21
170.694940
0
LINE
8
Layer 1
10
67.003350
20
170.694940
11
67.645132
21
169.939935
0
LINE
8
Layer 1
10
67.645132
20
169.939935
11
67.810742
21
169.120670
0
LINE
8
Layer 1
10
67.810742
20
169.120670
11
67.593939
21
168.175164
0
LINE
8
Layer 1
10
67.593939
20
168.175164
11
67.099420
21
167.337104
0
LINE
8
Layer 1
10
67.099420
20
167.337104
11
65.567200
21
165.687630
0
LINE
8
Layer 1
10
65.567200
20
165.687630
11
62.402932
21
162.703380
0
LINE
8
Layer 1
10
62.402932
20
162.703380
11
60.673078
21
160.974925
0
LINE
8
Layer 1
10
60.673078
20
160.974925
11
59.074054
21
159.124306
0
LINE
8
Layer 1
10
59.074054
20
159.124306
11
57.615459
21
157.161249
0
LINE
8
Layer 1
10
57.615459
20
157.161249
11
56.306892
21
155.095480
0
LINE
8
Layer 1
10
56.306892
20
155.095480
11
54.693074
21
151.853916
0
LINE
8
Layer 1
10
54.693074
20
151.853916
11
53.535465
21
148.423570
0
LINE
8
Layer 1
10
53.535465
20
148.423570
11
51.997683
21
143.100121
0
LINE
8
Layer 1
10
51.997683
20
143.100121
11
50.316054
21
137.820660
0
LINE
8
Layer 1
10
50.316054
20
137.820660
11
51.578286
21
137.747424
0
LINE
8
Layer 1
10
51.578286
20
137.747424
11
52.839424
21
137.800360
0
LINE
8
Layer 1
10
52.839424
20
137.800360
11
53.884918
21
137.964636
0
LINE
8
Layer 1
10
53.884918
20
137.964636
11
54.264570
21
137.936458
0
LINE
8
Layer 1
10
54.264570
20
137.936458
11
54.526815
21
137.721760
0
LINE
8
Layer 1
10
54.526815
20
137.721760
11
54.816345
21
136.765820
0
LINE
8
Layer 1
10
54.816345
20
136.765820
11
54.671884
21
135.780896
0
LINE
8
Layer 1
10
54.671884
20
135.780896
11
53.690521
21
133.666970
0
LINE
8
Layer 1
10
53.690521
20
133.666970
11
52.953102
21
132.386360
0
LINE
8
Layer 1
10
52.953102
20
132.386360
11
52.694002
21
132.014250
0
LINE
8
Layer 1
10
52.694002
20
132.014250
11
51.798947
21
130.948811
0
LINE
8
Layer 1
10
51.798947
20
130.948811
11
50.739324
21
130.047990
0
LINE
8
Layer 1
10
50.739324
20
130.047990
11
50.619569
21
129.895215
0
LINE
8
Layer 1
10
50.619569
20
129.895215
11
50.801764
21
129.741390
0
LINE
8
Layer 1
10
50.801764
20
129.741390
11
51.659904
21
129.132464
0
LINE
8
Layer 1
10
51.659904
20
129.132464
11
52.594596
21
128.652121
0
LINE
8
Layer 1
10
52.594596
20
128.652121
11
54.593313
21
127.993870
0
LINE
8
Layer 1
10
54.593313
20
127.993870
11
56.322891
21
127.735629
0
LINE
8
Layer 1
10
56.322891
20
127.735629
11
57.111251
21
127.518955
0
LINE
8
Layer 1
10
57.111251
20
127.518955
11
57.767514
21
127.076070
0
LINE
8
Layer 1
10
57.767514
20
127.076070
11
58.062599
21
126.491959
0
LINE
8
Layer 1
10
58.062599
20
126.491959
11
58.094908
21
125.699430
0
LINE
8
Layer 1
10
58.094908
20
125.699430
11
58.044398
21
124.829310
0
LINE
8
Layer 1
10
58.044398
20
124.829310
11
57.833029
21
123.187085
0
LINE
8
Layer 1
10
57.833029
20
123.187085
11
57.473030
21
121.569490
0
LINE
8
Layer 1
10
57.473030
20
121.569490
11
56.591119
21
118.744300
0
LINE
8
Layer 1
10
56.591119
20
118.744300
11
60.255373
21
119.597191
0
LINE
8
Layer 1
10
60.255373
20
119.597191
11
62.037417
21
120.191541
0
LINE
8
Layer 1
10
62.037417
20
120.191541
11
63.750490
21
120.967530
0
LINE
8
Layer 1
10
63.750490
20
120.967530
11
64.915159
21
121.693480
0
LINE
8
Layer 1
10
64.915159
20
121.693480
11
65.935779
21
120.055818
0
LINE
8
Layer 1
10
65.935779
20
120.055818
11
67.091807
21
118.510750
0
LINE
8
Layer 1
10
67.091807
20
118.510750
11
69.182763
21
116.371770
0
LINE
8
Layer 1
10
69.182763
20
116.371770
11
71.738678
21
114.460170
0
LINE
8
Layer 1
10
71.738678
20
114.460170
11
74.243795
21
113.076950
0
LINE
8
Layer 1
10
74.243795
20
113.076950
11
74.505305
21
114.638540
0
LINE
8
Layer 1
10
74.505305
20
114.638540
11
74.967506
21
115.667618
0
LINE
8
Layer 1
10
74.967506
20
115.667618
11
75.584995
21
116.614180
0
LINE
8
Layer 1
10
75.584995
20
116.614180
11
76.682699
21
117.856496
0
LINE
8
Layer 1
10
76.682699
20
117.856496
11
78.032725
21
118.811270
0
LINE
8
Layer 1
10
78.032725
20
118.811270
11
78.220160
21
118.842896
0
LINE
8
Layer 1
10
78.220160
20
118.842896
11
78.329565
21
118.635040
0
LINE
8
Layer 1
10
78.329565
20
118.635040
11
79.861545
21
116.012710
0
LINE
8
Layer 1
10
79.861545
20
116.012710
11
81.271285
21
114.113960
0
LINE
8
Layer 1
10
81.271285
20
114.113960
11
83.567465
21
111.821760
0
LINE
8
Layer 1
10
83.567465
20
111.821760
11
85.014023
21
110.706020
0
LINE
8
Layer 1
10
85.014023
20
110.706020
11
86.558545
21
109.730440
0
LINE
8
Layer 1
10
86.558545
20
109.730440
11
88.336985
21
108.776440
0
LINE
8
Layer 1
10
88.336985
20
108.776440
11
88.607895
21
110.363130
0
LINE
8
Layer 1
10
88.607895
20
110.363130
11
89.067414
21
111.380881
0
LINE
8
Layer 1
10
89.067414
20
111.380881
11
89.679625
21
112.317370
0
LINE
8
Layer 1
10
89.679625
20
112.317370
11
90.427475
21
113.214298
0
LINE
8
Layer 1
10
90.427475
20
113.214298
11
91.288845
21
114.001650
0
LINE
8
Layer 1
10
91.288845
20
114.001650
11
92.250154
21
114.578458
0
LINE
8
Layer 1
10
92.250154
20
114.578458
11
93.286628
21
115.002259
0
LINE
8
Layer 1
10
93.286628
20
115.002259
11
95.472345
21
115.506660
0
LINE
8
Layer 1
10
95.472345
20
115.506660
11
98.128082
21
115.665066
0
LINE
8
Layer 1
10
98.128082
20
115.665066
11
100.774920
21
115.401200
0
LINE
8
Layer 1
10
100.774920
20
115.401200
11
105.735930
21
113.846930
0
LINE
8
Layer 1
10
105.735930
20
113.846930
11
107.097680
21
110.278840
0
LINE
8
Layer 1
10
107.097680
20
110.278840
11
107.751178
21
109.226993
0
LINE
8
Layer 1
10
107.751178
20
109.226993
11
108.596909
21
108.326233
0
LINE
8
Layer 1
10
108.596909
20
108.326233
11
109.591010
21
107.585840
0
LINE
8
Layer 1
10
109.591010
20
107.585840
11
110.689620
21
107.015100
0
LINE
8
Layer 1
10
110.689620
20
107.015100
11
111.889924
21
106.586873
0
LINE
8
Layer 1
10
111.889924
20
106.586873
11
113.133930
21
106.309410
0
LINE
8
Layer 1
10
113.133930
20
106.309410
11
113.056430
21
103.543680
0
LINE
8
Layer 1
10
113.056430
20
103.543680
11
114.557616
21
104.147253
0
LINE
8
Layer 1
10
114.557616
20
104.147253
11
115.280129
21
104.366047
0
LINE
8
Layer 1
10
115.280129
20
104.366047
11
115.908960
21
104.308490
0
LINE
8
Layer 1
10
115.908960
20
104.308490
11
116.013923
21
104.059298
0
LINE
8
Layer 1
10
116.013923
20
104.059298
11
115.894859
21
103.667728
0
LINE
8
Layer 1
10
115.894859
20
103.667728
11
115.784095
21
103.274218
0
LINE
8
Layer 1
10
115.784095
20
103.274218
11
115.913960
21
103.019210
0
LINE
8
Layer 1
10
115.913960
20
103.019210
11
116.479686
21
103.056693
0
LINE
8
Layer 1
10
116.479686
20
103.056693
11
117.354841
21
103.363275
0
LINE
8
Layer 1
10
117.354841
20
103.363275
11
119.346680
21
104.147260
0
LINE
8
Layer 1
10
119.346680
20
104.147260
11
121.993280
21
104.893700
0
LINE
8
Layer 1
10
121.993280
20
104.893700
11
123.582545
21
105.491697
0
LINE
8
Layer 1
10
123.582545
20
105.491697
11
125.037129
21
106.362264
0
LINE
8
Layer 1
10
125.037129
20
106.362264
11
126.339820
21
107.454784
0
LINE
8
Layer 1
10
126.339820
20
107.454784
11
127.473410
21
108.718640
0
LINE
8
Layer 1
10
127.473410
20
108.718640
11
128.425385
21
110.070070
0
LINE
8
Layer 1
10
128.425385
20
110.070070
11
129.236270
21
111.510720
0
LINE
8
Layer 1
10
129.236270
20
111.510720
11
130.003180
21
112.702460
0
LINE
8
Layer 1
10
130.003180
20
112.702460
11
131.470070
21
114.100890
0
LINE
8
Layer 1
10
131.470070
20
114.100890
11
132.154265
21
114.985415
0
LINE
8
Layer 1
10
132.154265
20
114.985415
11
132.634888
21
115.994129
0
LINE
8
Layer 1
10
132.634888
20
115.994129
11
132.918766
21
117.079385
0
LINE
8
Layer 1
10
132.918766
20
117.079385
11
133.012730
21
118.193540
0
LINE
8
Layer 1
10
133.012730
20
118.193540
11
132.859855
21
119.356329
0
LINE
8
Layer 1
10
132.859855
20
119.356329
11
132.450930
21
120.455780
0
LINE
8
Layer 1
10
132.450930
20
120.455780
11
131.976090
21
121.494630
0
LINE
8
Layer 1
10
131.976090
20
121.494630
11
131.881530
21
123.412894
0
LINE
8
Layer 1
10
131.881530
20
123.412894
11
131.835360
21
125.315250
0
LINE
8
Layer 1
10
131.835360
20
125.315250
11
131.502801
21
126.836493
0
LINE
8
Layer 1
10
131.502801
20
126.836493
11
131.193749
21
127.548012
0
LINE
8
Layer 1
10
131.193749
20
127.548012
11
130.748060
21
128.185070
0
LINE
8
Layer 1
10
130.748060
20
128.185070
11
130.269167
21
128.584289
0
LINE
8
Layer 1
10
130.269167
20
128.584289
11
129.694184
21
128.820816
0
LINE
8
Layer 1
10
129.694184
20
128.820816
11
129.075428
21
128.882521
0
LINE
8
Layer 1
10
129.075428
20
128.882521
11
128.465220
21
128.757270
0
LINE
8
Layer 1
10
128.465220
20
128.757270
11
127.879658
21
128.708439
0
LINE
8
Layer 1
10
127.879658
20
128.708439
11
127.317780
21
129.083260
0
LINE
8
Layer 1
10
127.317780
20
129.083260
11
126.405308
21
131.589274
0
LINE
8
Layer 1
10
126.405308
20
131.589274
11
125.920004
21
133.378902
0
LINE
8
Layer 1
10
125.920004
20
133.378902
11
125.556120
21
135.275600
0
LINE
8
Layer 1
10
125.556120
20
135.275600
11
125.447600
21
136.255380
0
LINE
8
Layer 1
10
125.447600
20
136.255380
11
125.431336
21
137.626174
0
LINE
8
Layer 1
10
125.431336
20
137.626174
11
125.621743
21
138.981669
0
LINE
8
Layer 1
10
125.621743
20
138.981669
11
126.432350
21
141.601270
0
LINE
8
Layer 1
10
126.432350
20
141.601270
11
127.720695
21
144.247414
0
LINE
8
Layer 1
10
127.720695
20
144.247414
11
129.325720
21
146.719670
0
LINE
8
Layer 1
10
129.325720
20
146.719670
11
130.079429
21
147.297041
0
LINE
8
Layer 1
10
130.079429
20
147.297041
11
131.240530
21
147.586270
0
LINE
8
Layer 1
10
131.240530
20
147.586270
11
132.347914
21
147.437281
0
LINE
8
Layer 1
10
132.347914
20
147.437281
11
132.781393
21
147.196186
0
LINE
8
Layer 1
10
132.781393
20
147.196186
11
133.207130
21
146.712660
0
LINE
8
Layer 1
10
133.207130
20
146.712660
11
133.525623
21
145.866442
0
LINE
8
Layer 1
10
133.525623
20
145.866442
11
133.613195
21
145.074753
0
LINE
8
Layer 1
10
133.613195
20
145.074753
11
133.586300
21
143.282930
0
LINE
8
Layer 1
10
133.586300
20
143.282930
11
133.749021
21
142.041071
0
LINE
8
Layer 1
10
133.749021
20
142.041071
11
133.972129
21
141.462077
0
LINE
8
Layer 1
10
133.972129
20
141.462077
11
134.345250
21
140.961040
0
LINE
8
Layer 1
10
134.345250
20
140.961040
11
135.120589
21
140.534415
0
LINE
8
Layer 1
10
135.120589
20
140.534415
11
135.561725
21
140.502006
0
LINE
8
Layer 1
10
135.561725
20
140.502006
11
135.992730
21
140.620160
0
LINE
8
Layer 1
10
135.992730
20
140.620160
11
136.994096
21
141.349938
0
LINE
8
Layer 1
10
136.994096
20
141.349938
11
137.775180
21
142.324800
0
LINE
8
Layer 1
10
137.775180
20
142.324800
11
139.058384
21
144.687566
0
LINE
8
Layer 1
10
139.058384
20
144.687566
11
139.925390
21
147.234300
0
LINE
8
Layer 1
10
139.925390
20
147.234300
11
140.640130
21
150.876540
0
LINE
8
Layer 1
10
140.640130
20
150.876540
11
140.792770
21
151.383831
0
LINE
8
Layer 1
10
140.792770
20
151.383831
11
141.035260
21
151.863170
0
LINE
8
Layer 1
10
141.035260
20
151.863170
11
142.263090
21
154.898745
0
LINE
8
Layer 1
10
142.263090
20
154.898745
11
142.671331
21
156.484375
0
LINE
8
Layer 1
10
142.671331
20
156.484375
11
142.911140
21
158.104690
0
LINE
8
Layer 1
10
142.911140
20
158.104690
11
142.896440
21
159.876180
0
LINE
8
Layer 1
10
142.896440
20
159.876180
11
142.743650
21
161.017690
0
LINE
8
Layer 1
10
142.743650
20
161.017690
11
142.586190
21
161.760440
0
LINE
8
Layer 1
10
142.586190
20
161.760440
11
142.114025
21
163.250306
0
LINE
8
Layer 1
10
142.114025
20
163.250306
11
141.465430
21
164.672140
0
LINE
8
Layer 1
10
141.465430
20
164.672140
11
140.684211
21
165.992173
0
LINE
8
Layer 1
10
140.684211
20
165.992173
11
139.737640
21
167.196120
0
LINE
8
Layer 1
10
139.737640
20
167.196120
11
138.800265
21
167.969893
0
LINE
8
Layer 1
10
138.800265
20
167.969893
11
137.769658
21
168.611261
0
LINE
8
Layer 1
10
137.769658
20
168.611261
11
135.568770
21
169.648560
0
LINE
8
Layer 1
10
135.568770
20
169.648560
11
130.458620
21
171.617550
0
LINE
8
Layer 1
10
130.458620
20
171.617550
11
130.262420
21
173.258978
0
LINE
8
Layer 1
10
130.262420
20
173.258978
11
129.772580
21
174.840690
0
LINE
8
Layer 1
10
129.772580
20
174.840690
11
129.292766
21
175.652553
0
LINE
8
Layer 1
10
129.292766
20
175.652553
11
128.659661
21
176.348191
0
LINE
8
Layer 1
10
128.659661
20
176.348191
11
127.125520
21
177.447880
0
LINE
8
Layer 1
10
127.125520
20
177.447880
11
125.185560
21
178.355120
0
LINE
8
Layer 1
10
125.185560
20
178.355120
11
125.388230
21
179.570388
0
LINE
8
Layer 1
10
125.388230
20
179.570388
11
125.177560
21
180.776160
0
LINE
8
Layer 1
10
125.177560
20
180.776160
11
124.917153
21
181.208847
0
LINE
8
Layer 1
10
124.917153
20
181.208847
11
124.545286
21
181.545586
0
LINE
8
Layer 1
10
124.545286
20
181.545586
11
123.602460
21
181.881520
0
LINE
8
Layer 1
10
123.602460
20
181.881520
11
121.936194
21
181.863459
0
LINE
8
Layer 1
10
121.936194
20
181.863459
11
120.277600
21
181.672230
0
LINE
8
Layer 1
10
120.277600
20
181.672230
11
119.300400
21
181.527020
0
LINE
8
Layer 1
10
119.300400
20
181.527020
11
114.765270
21
184.263290
0
LINE
8
Layer 1
10
114.765270
20
184.263290
11
112.673521
21
185.089839
0
LINE
8
Layer 1
10
112.673521
20
185.089839
11
111.576501
21
185.330773
0
LINE
8
Layer 1
10
111.576501
20
185.330773
11
110.454940
21
185.408960
0
LINE
8
Layer 1
10
110.454940
20
185.408960
11
109.965050
21
185.479760
0
LINE
8
Layer 1
10
109.965050
20
185.479760
11
107.014369
21
186.447264
0
LINE
8
Layer 1
10
107.014369
20
186.447264
11
103.991920
21
187.152500
0
LINE
8
Layer 1
10
103.991920
20
187.152500
11
102.116199
21
187.326006
0
LINE
8
Layer 1
10
102.116199
20
187.326006
11
100.230240
21
187.331850
0
LINE
8
Layer 1
10
100.230240
20
187.331850
11
100.229810
21
187.332290
 0 
ENDSEC
 0 
EOF